<?xml version="1.0" encoding="utf-8"?>
<!-- Generator: Adobe Illustrator 24.3.0, SVG Export Plug-In . SVG Version: 6.00 Build 0)  -->
<svg version="1.1" id="图层_1" xmlns="http://www.w3.org/2000/svg" xmlns:xlink="http://www.w3.org/1999/xlink" x="0px" y="0px"
	 viewBox="0 0 595.28 841.89" style="enable-background:new 0 0 595.28 841.89;" xml:space="preserve">
<style type="text/css">
	.st0{fill:#FFFFFF;}
	.st1{stroke:#000000;stroke-width:0.8;stroke-linejoin:round;stroke-miterlimit:10;}
	.st2{fill-rule:evenodd;clip-rule:evenodd;}
	
		.st3{clip-path:url(#SVGID_2_);fill:none;stroke:#000000;stroke-width:1.5;stroke-linecap:square;stroke-linejoin:round;stroke-miterlimit:10;}
	.st4{fill:none;stroke:#000000;stroke-width:0.8;stroke-linecap:square;stroke-miterlimit:10;}
</style>
<g>
	<rect x="117" y="313.89" class="st0" width="360" height="216"/>
	<rect x="171" y="339.81" class="st0" width="270" height="146.88"/>
	<line class="st1" x1="183.27" y1="486.69" x2="183.27" y2="490.19"/>
	<path class="st2" d="M183.3,494.69c-0.51,0-0.89,0.25-1.15,0.75s-0.38,1.25-0.38,2.25s0.12,1.75,0.38,2.25s0.64,0.75,1.15,0.75
		c0.51,0,0.89-0.25,1.15-0.75c0.25-0.5,0.38-1.25,0.38-2.25s-0.13-1.75-0.38-2.25C184.19,494.94,183.81,494.69,183.3,494.69
		 M183.3,493.91c0.81,0,1.43,0.33,1.87,0.97c0.43,0.65,0.65,1.59,0.65,2.81c0,1.23-0.22,2.17-0.65,2.81
		c-0.44,0.64-1.06,0.96-1.87,0.96c-0.82,0-1.45-0.32-1.88-0.96c-0.43-0.64-0.64-1.58-0.64-2.81c0-1.22,0.21-2.16,0.64-2.81
		C181.85,494.24,182.48,493.91,183.3,493.91L183.3,493.91z"/>
	<line class="st1" x1="217.38" y1="486.69" x2="217.38" y2="490.19"/>
	<polygon class="st2" points="205.84,500.5 207.45,500.5 207.45,494.94 205.7,495.29 205.7,494.39 207.44,494.04 208.43,494.04 
		208.43,500.5 210.04,500.5 210.04,501.33 205.84,501.33 205.84,500.5 	"/>
	<path class="st2" d="M214.26,494.69c-0.51,0-0.89,0.25-1.15,0.75s-0.38,1.25-0.38,2.25s0.12,1.75,0.38,2.25s0.64,0.75,1.15,0.75
		s0.89-0.25,1.15-0.75c0.25-0.5,0.38-1.25,0.38-2.25s-0.13-1.75-0.38-2.25C215.15,494.94,214.77,494.69,214.26,494.69
		 M214.26,493.91c0.81,0,1.43,0.33,1.87,0.97c0.43,0.65,0.65,1.59,0.65,2.81c0,1.23-0.22,2.17-0.65,2.81
		c-0.44,0.64-1.06,0.96-1.87,0.96c-0.82,0-1.45-0.32-1.88-0.96c-0.43-0.64-0.64-1.58-0.64-2.81c0-1.22,0.21-2.16,0.64-2.81
		C212.81,494.24,213.44,493.91,214.26,493.91L214.26,493.91z"/>
	<path class="st2" d="M220.5,494.69c-0.51,0-0.89,0.25-1.15,0.75c-0.26,0.5-0.38,1.25-0.38,2.25s0.12,1.75,0.38,2.25
		c0.26,0.5,0.64,0.75,1.15,0.75c0.51,0,0.89-0.25,1.15-0.75c0.25-0.5,0.38-1.25,0.38-2.25s-0.13-1.75-0.38-2.25
		C221.39,494.94,221.01,494.69,220.5,494.69 M220.5,493.91c0.81,0,1.43,0.33,1.87,0.97c0.43,0.65,0.65,1.59,0.65,2.81
		c0,1.23-0.22,2.17-0.65,2.81c-0.44,0.64-1.06,0.96-1.87,0.96c-0.82,0-1.45-0.32-1.88-0.96c-0.43-0.64-0.64-1.58-0.64-2.81
		c0-1.22,0.21-2.16,0.64-2.81C219.05,494.24,219.68,493.91,220.5,493.91L220.5,493.91z"/>
	<path class="st2" d="M226.98,494.69c-0.51,0-0.89,0.25-1.15,0.75s-0.38,1.25-0.38,2.25s0.12,1.75,0.38,2.25s0.64,0.75,1.15,0.75
		s0.89-0.25,1.15-0.75c0.25-0.5,0.38-1.25,0.38-2.25s-0.13-1.75-0.38-2.25C227.87,494.94,227.49,494.69,226.98,494.69
		 M226.98,493.91c0.81,0,1.43,0.33,1.87,0.97c0.43,0.65,0.65,1.59,0.65,2.81c0,1.23-0.22,2.17-0.65,2.81
		c-0.44,0.64-1.06,0.96-1.87,0.96c-0.82,0-1.45-0.32-1.88-0.96c-0.43-0.64-0.64-1.58-0.64-2.81c0-1.22,0.21-2.16,0.64-2.81
		C225.53,494.24,226.16,493.91,226.98,493.91L226.98,493.91z"/>
	<line class="st1" x1="251.48" y1="486.69" x2="251.48" y2="490.19"/>
	<path class="st2" d="M240.6,500.5h3.44v0.83h-4.63v-0.83c0.37-0.38,0.88-0.9,1.53-1.56c0.64-0.65,1.05-1.07,1.22-1.26
		c0.32-0.35,0.54-0.65,0.66-0.9c0.12-0.24,0.19-0.49,0.19-0.73c0-0.38-0.14-0.7-0.41-0.94s-0.62-0.37-1.06-0.37
		c-0.31,0-0.64,0.06-0.98,0.16c-0.34,0.11-0.71,0.27-1.1,0.49v-1c0.4-0.16,0.77-0.28,1.11-0.36c0.34-0.08,0.66-0.12,0.95-0.12
		c0.75,0,1.35,0.19,1.8,0.57s0.68,0.88,0.68,1.51c0,0.3-0.06,0.59-0.17,0.85c-0.11,0.27-0.31,0.59-0.61,0.95
		c-0.08,0.1-0.34,0.37-0.78,0.82S241.39,499.69,240.6,500.5L240.6,500.5z"/>
	<path class="st2" d="M248.34,494.69c-0.51,0-0.89,0.25-1.15,0.75s-0.38,1.25-0.38,2.25s0.12,1.75,0.38,2.25s0.64,0.75,1.15,0.75
		s0.89-0.25,1.15-0.75c0.25-0.5,0.38-1.25,0.38-2.25s-0.13-1.75-0.38-2.25C249.23,494.94,248.85,494.69,248.34,494.69
		 M248.34,493.91c0.81,0,1.43,0.33,1.87,0.97c0.43,0.65,0.65,1.59,0.65,2.81c0,1.23-0.22,2.17-0.65,2.81
		c-0.44,0.64-1.06,0.96-1.87,0.96c-0.82,0-1.45-0.32-1.88-0.96c-0.43-0.64-0.64-1.58-0.64-2.81c0-1.22,0.21-2.16,0.64-2.81
		C246.89,494.24,247.52,493.91,248.34,493.91L248.34,493.91z"/>
	<path class="st2" d="M254.58,494.69c-0.51,0-0.89,0.25-1.15,0.75s-0.38,1.25-0.38,2.25s0.12,1.75,0.38,2.25s0.64,0.75,1.15,0.75
		c0.51,0,0.89-0.25,1.15-0.75c0.25-0.5,0.38-1.25,0.38-2.25s-0.13-1.75-0.38-2.25C255.47,494.94,255.09,494.69,254.58,494.69
		 M254.58,493.91c0.81,0,1.43,0.33,1.87,0.97c0.43,0.65,0.65,1.59,0.65,2.81c0,1.23-0.22,2.17-0.65,2.81
		c-0.44,0.64-1.06,0.96-1.87,0.96c-0.82,0-1.45-0.32-1.88-0.96c-0.43-0.64-0.64-1.58-0.64-2.81c0-1.22,0.21-2.16,0.64-2.81
		C253.13,494.24,253.76,493.91,254.58,493.91L254.58,493.91z"/>
	<path class="st2" d="M261.06,494.69c-0.51,0-0.89,0.25-1.15,0.75c-0.26,0.5-0.38,1.25-0.38,2.25s0.12,1.75,0.38,2.25
		c0.26,0.5,0.64,0.75,1.15,0.75s0.89-0.25,1.15-0.75c0.25-0.5,0.38-1.25,0.38-2.25s-0.13-1.75-0.38-2.25
		C261.95,494.94,261.57,494.69,261.06,494.69 M261.06,493.91c0.81,0,1.43,0.33,1.87,0.97c0.43,0.65,0.65,1.59,0.65,2.81
		c0,1.23-0.22,2.17-0.65,2.81c-0.44,0.64-1.06,0.96-1.87,0.96c-0.82,0-1.45-0.32-1.88-0.96c-0.43-0.64-0.64-1.58-0.64-2.81
		c0-1.22,0.21-2.16,0.64-2.81C259.61,494.24,260.24,493.91,261.06,493.91L261.06,493.91z"/>
	<line class="st1" x1="285.59" y1="486.69" x2="285.59" y2="490.19"/>
	<path class="st2" d="M276.82,497.4c0.47,0.1,0.84,0.31,1.1,0.63c0.26,0.32,0.4,0.72,0.4,1.18c0,0.72-0.25,1.28-0.74,1.67
		c-0.5,0.39-1.2,0.58-2.11,0.58c-0.31,0-0.63-0.03-0.95-0.09c-0.32-0.05-0.66-0.14-1-0.26v-0.95c0.27,0.16,0.57,0.28,0.9,0.36
		c0.32,0.08,0.66,0.12,1.02,0.12c0.62,0,1.09-0.12,1.41-0.36c0.32-0.24,0.49-0.6,0.49-1.07c0-0.42-0.15-0.76-0.45-1
		c-0.3-0.24-0.72-0.37-1.26-0.37h-0.85v-0.81h0.89c0.48,0,0.85-0.09,1.11-0.29c0.26-0.19,0.39-0.47,0.39-0.84s-0.14-0.66-0.4-0.86
		c-0.27-0.2-0.65-0.3-1.14-0.3c-0.27,0-0.56,0.03-0.87,0.09s-0.65,0.15-1.02,0.27v-0.88c0.37-0.1,0.72-0.18,1.05-0.23
		c0.32-0.05,0.63-0.08,0.93-0.08c0.74,0,1.33,0.17,1.77,0.51s0.66,0.8,0.66,1.38c0,0.4-0.12,0.74-0.35,1.02
		C277.57,497.1,277.24,497.3,276.82,497.4L276.82,497.4z"/>
	<path class="st2" d="M282.42,494.69c-0.51,0-0.89,0.25-1.15,0.75c-0.26,0.5-0.38,1.25-0.38,2.25s0.12,1.75,0.38,2.25
		c0.26,0.5,0.64,0.75,1.15,0.75c0.51,0,0.89-0.25,1.15-0.75c0.25-0.5,0.38-1.25,0.38-2.25s-0.13-1.75-0.38-2.25
		C283.31,494.94,282.93,494.69,282.42,494.69 M282.42,493.91c0.81,0,1.43,0.33,1.87,0.97c0.43,0.65,0.65,1.59,0.65,2.81
		c0,1.23-0.22,2.17-0.65,2.81c-0.44,0.64-1.06,0.96-1.87,0.96c-0.82,0-1.45-0.32-1.88-0.96c-0.43-0.64-0.64-1.58-0.64-2.81
		c0-1.22,0.21-2.16,0.64-2.81C280.97,494.24,281.6,493.91,282.42,493.91L282.42,493.91z"/>
	<path class="st2" d="M288.66,494.69c-0.51,0-0.89,0.25-1.15,0.75c-0.26,0.5-0.38,1.25-0.38,2.25s0.12,1.75,0.38,2.25
		c0.26,0.5,0.64,0.75,1.15,0.75s0.89-0.25,1.15-0.75c0.25-0.5,0.38-1.25,0.38-2.25s-0.13-1.75-0.38-2.25
		C289.55,494.94,289.17,494.69,288.66,494.69 M288.66,493.91c0.81,0,1.43,0.33,1.87,0.97c0.43,0.65,0.65,1.59,0.65,2.81
		c0,1.23-0.22,2.17-0.65,2.81c-0.44,0.64-1.06,0.96-1.87,0.96c-0.82,0-1.45-0.32-1.88-0.96c-0.43-0.64-0.64-1.58-0.64-2.81
		c0-1.22,0.21-2.16,0.64-2.81C287.21,494.24,287.84,493.91,288.66,493.91L288.66,493.91z"/>
	<path class="st2" d="M295.14,494.69c-0.51,0-0.89,0.25-1.15,0.75c-0.26,0.5-0.38,1.25-0.38,2.25s0.12,1.75,0.38,2.25
		c0.26,0.5,0.64,0.75,1.15,0.75c0.51,0,0.89-0.25,1.15-0.75c0.25-0.5,0.38-1.25,0.38-2.25s-0.13-1.75-0.38-2.25
		C296.03,494.94,295.65,494.69,295.14,494.69 M295.14,493.91c0.81,0,1.43,0.33,1.87,0.97c0.43,0.65,0.65,1.59,0.65,2.81
		c0,1.23-0.22,2.17-0.65,2.81c-0.44,0.64-1.06,0.96-1.87,0.96c-0.82,0-1.45-0.32-1.88-0.96c-0.43-0.64-0.64-1.58-0.64-2.81
		c0-1.22,0.21-2.16,0.64-2.81C293.69,494.24,294.32,493.91,295.14,493.91L295.14,493.91z"/>
	<line class="st1" x1="319.69" y1="486.69" x2="319.69" y2="490.19"/>
	<path class="st2" d="M310.86,494.9l-2.49,3.89h2.49V494.9 M310.6,494.04h1.24v4.75h1.04v0.82h-1.04v1.72h-0.98v-1.72h-3.29v-0.95
		L310.6,494.04L310.6,494.04z"/>
	<path class="st2" d="M316.5,494.69c-0.51,0-0.89,0.25-1.15,0.75s-0.38,1.25-0.38,2.25s0.12,1.75,0.38,2.25s0.64,0.75,1.15,0.75
		s0.89-0.25,1.15-0.75c0.25-0.5,0.38-1.25,0.38-2.25s-0.13-1.75-0.38-2.25C317.39,494.94,317.01,494.69,316.5,494.69 M316.5,493.91
		c0.81,0,1.43,0.33,1.87,0.97c0.43,0.65,0.65,1.59,0.65,2.81c0,1.23-0.22,2.17-0.65,2.81c-0.44,0.64-1.06,0.96-1.87,0.96
		c-0.82,0-1.45-0.32-1.88-0.96c-0.43-0.64-0.64-1.58-0.64-2.81c0-1.22,0.21-2.16,0.64-2.81
		C315.05,494.24,315.68,493.91,316.5,493.91L316.5,493.91z"/>
	<path class="st2" d="M322.98,494.69c-0.51,0-0.89,0.25-1.15,0.75c-0.26,0.5-0.38,1.25-0.38,2.25s0.12,1.75,0.38,2.25
		c0.26,0.5,0.64,0.75,1.15,0.75c0.51,0,0.89-0.25,1.15-0.75c0.25-0.5,0.38-1.25,0.38-2.25s-0.13-1.75-0.38-2.25
		C323.87,494.94,323.49,494.69,322.98,494.69 M322.98,493.91c0.81,0,1.43,0.33,1.87,0.97c0.43,0.65,0.65,1.59,0.65,2.81
		c0,1.23-0.22,2.17-0.65,2.81c-0.44,0.64-1.06,0.96-1.87,0.96c-0.82,0-1.45-0.32-1.88-0.96c-0.43-0.64-0.64-1.58-0.64-2.81
		c0-1.22,0.21-2.16,0.64-2.81C321.53,494.24,322.16,493.91,322.98,493.91L322.98,493.91z"/>
	<path class="st2" d="M329.22,494.69c-0.51,0-0.89,0.25-1.15,0.75s-0.38,1.25-0.38,2.25s0.12,1.75,0.38,2.25s0.64,0.75,1.15,0.75
		s0.89-0.25,1.15-0.75c0.25-0.5,0.38-1.25,0.38-2.25s-0.13-1.75-0.38-2.25C330.11,494.94,329.73,494.69,329.22,494.69
		 M329.22,493.91c0.81,0,1.43,0.33,1.87,0.97c0.43,0.65,0.65,1.59,0.65,2.81c0,1.23-0.22,2.17-0.65,2.81
		c-0.44,0.64-1.06,0.96-1.87,0.96c-0.82,0-1.45-0.32-1.88-0.96c-0.43-0.64-0.64-1.58-0.64-2.81c0-1.22,0.21-2.16,0.64-2.81
		C327.77,494.24,328.4,493.91,329.22,493.91L329.22,493.91z"/>
	<line class="st1" x1="353.8" y1="486.69" x2="353.8" y2="490.19"/>
	<path class="st2" d="M342.24,494.04h3.87v0.83h-2.97v1.79c0.14-0.05,0.29-0.09,0.43-0.11c0.14-0.02,0.29-0.04,0.43-0.04
		c0.81,0,1.45,0.23,1.93,0.67c0.48,0.45,0.72,1.05,0.72,1.81c0,0.79-0.25,1.4-0.74,1.83c-0.49,0.43-1.18,0.64-2.06,0.64
		c-0.31,0-0.62-0.03-0.94-0.07c-0.32-0.05-0.64-0.12-0.98-0.23v-0.99c0.29,0.16,0.59,0.28,0.91,0.36c0.31,0.08,0.64,0.11,0.99,0.11
		c0.56,0,1.01-0.14,1.34-0.44c0.32-0.3,0.49-0.7,0.49-1.21c0-0.5-0.17-0.9-0.49-1.2c-0.33-0.3-0.78-0.45-1.34-0.45
		c-0.26,0-0.53,0.03-0.79,0.09s-0.53,0.15-0.8,0.27V494.04L342.24,494.04z"/>
	<path class="st2" d="M350.58,494.69c-0.51,0-0.89,0.25-1.15,0.75c-0.26,0.5-0.38,1.25-0.38,2.25s0.12,1.75,0.38,2.25
		c0.26,0.5,0.64,0.75,1.15,0.75c0.51,0,0.89-0.25,1.15-0.75c0.25-0.5,0.38-1.25,0.38-2.25s-0.13-1.75-0.38-2.25
		C351.47,494.94,351.09,494.69,350.58,494.69 M350.58,493.91c0.81,0,1.43,0.33,1.87,0.97c0.43,0.65,0.65,1.59,0.65,2.81
		c0,1.23-0.22,2.17-0.65,2.81c-0.44,0.64-1.06,0.96-1.87,0.96c-0.82,0-1.45-0.32-1.88-0.96c-0.43-0.64-0.64-1.58-0.64-2.81
		c0-1.22,0.21-2.16,0.64-2.81C349.13,494.24,349.76,493.91,350.58,493.91L350.58,493.91z"/>
	<path class="st2" d="M357.06,494.69c-0.51,0-0.89,0.25-1.15,0.75s-0.38,1.25-0.38,2.25s0.12,1.75,0.38,2.25s0.64,0.75,1.15,0.75
		s0.89-0.25,1.15-0.75c0.25-0.5,0.38-1.25,0.38-2.25s-0.13-1.75-0.38-2.25C357.95,494.94,357.57,494.69,357.06,494.69
		 M357.06,493.91c0.81,0,1.43,0.33,1.87,0.97c0.43,0.65,0.65,1.59,0.65,2.81c0,1.23-0.22,2.17-0.65,2.81
		c-0.44,0.64-1.06,0.96-1.87,0.96c-0.82,0-1.45-0.32-1.88-0.96c-0.43-0.64-0.64-1.58-0.64-2.81c0-1.22,0.21-2.16,0.64-2.81
		C355.61,494.24,356.24,493.91,357.06,493.91L357.06,493.91z"/>
	<path class="st2" d="M363.3,494.69c-0.51,0-0.89,0.25-1.15,0.75c-0.26,0.5-0.38,1.25-0.38,2.25s0.12,1.75,0.38,2.25
		c0.26,0.5,0.64,0.75,1.15,0.75c0.51,0,0.89-0.25,1.15-0.75c0.25-0.5,0.38-1.25,0.38-2.25s-0.13-1.75-0.38-2.25
		C364.19,494.94,363.81,494.69,363.3,494.69 M363.3,493.91c0.81,0,1.43,0.33,1.87,0.97c0.43,0.65,0.65,1.59,0.65,2.81
		c0,1.23-0.22,2.17-0.65,2.81c-0.44,0.64-1.06,0.96-1.87,0.96c-0.82,0-1.45-0.32-1.88-0.96c-0.43-0.64-0.64-1.58-0.64-2.81
		c0-1.22,0.21-2.16,0.64-2.81C361.85,494.24,362.48,493.91,363.3,493.91L363.3,493.91z"/>
	<line class="st1" x1="387.9" y1="486.69" x2="387.9" y2="490.19"/>
	<path class="st2" d="M378.54,497.29c-0.44,0-0.79,0.16-1.05,0.46c-0.26,0.3-0.39,0.72-0.39,1.24c0,0.53,0.13,0.95,0.39,1.25
		c0.26,0.3,0.61,0.45,1.05,0.45s0.79-0.15,1.05-0.45c0.26-0.3,0.39-0.72,0.39-1.25c0-0.52-0.13-0.94-0.39-1.24
		C379.33,497.45,378.98,497.29,378.54,497.29 M380.5,494.2v0.9c-0.25-0.12-0.5-0.21-0.75-0.27c-0.26-0.06-0.51-0.09-0.75-0.09
		c-0.66,0-1.16,0.22-1.5,0.66s-0.54,1.11-0.58,1.99c0.19-0.28,0.43-0.5,0.72-0.65c0.29-0.15,0.61-0.23,0.96-0.23
		c0.73,0,1.31,0.23,1.73,0.67c0.42,0.44,0.64,1.05,0.64,1.81c0,0.75-0.23,1.35-0.67,1.8c-0.44,0.45-1.03,0.67-1.76,0.67
		c-0.84,0-1.49-0.32-1.93-0.96c-0.45-0.64-0.67-1.58-0.67-2.81c0-1.15,0.27-2.07,0.82-2.75c0.54-0.68,1.28-1.03,2.2-1.03
		c0.24,0,0.49,0.03,0.75,0.07C379.96,494.03,380.22,494.1,380.5,494.2L380.5,494.2z"/>
	<path class="st2" d="M384.66,494.69c-0.51,0-0.89,0.25-1.15,0.75s-0.38,1.25-0.38,2.25s0.12,1.75,0.38,2.25s0.64,0.75,1.15,0.75
		s0.89-0.25,1.15-0.75c0.25-0.5,0.38-1.25,0.38-2.25s-0.13-1.75-0.38-2.25C385.55,494.94,385.17,494.69,384.66,494.69
		 M384.66,493.91c0.81,0,1.43,0.33,1.87,0.97c0.43,0.65,0.65,1.59,0.65,2.81c0,1.23-0.22,2.17-0.65,2.81
		c-0.44,0.64-1.06,0.96-1.87,0.96c-0.82,0-1.45-0.32-1.88-0.96c-0.43-0.64-0.64-1.58-0.64-2.81c0-1.22,0.21-2.16,0.64-2.81
		C383.21,494.24,383.84,493.91,384.66,493.91L384.66,493.91z"/>
	<path class="st2" d="M391.14,494.69c-0.51,0-0.89,0.25-1.15,0.75c-0.26,0.5-0.38,1.25-0.38,2.25s0.12,1.75,0.38,2.25
		c0.26,0.5,0.64,0.75,1.15,0.75c0.51,0,0.89-0.25,1.15-0.75c0.25-0.5,0.38-1.25,0.38-2.25s-0.13-1.75-0.38-2.25
		C392.03,494.94,391.65,494.69,391.14,494.69 M391.14,493.91c0.81,0,1.43,0.33,1.87,0.97c0.43,0.65,0.65,1.59,0.65,2.81
		c0,1.23-0.22,2.17-0.65,2.81c-0.44,0.64-1.06,0.96-1.87,0.96c-0.82,0-1.45-0.32-1.88-0.96c-0.43-0.64-0.64-1.58-0.64-2.81
		c0-1.22,0.21-2.16,0.64-2.81C389.69,494.24,390.32,493.91,391.14,493.91L391.14,493.91z"/>
	<path class="st2" d="M397.38,494.69c-0.51,0-0.89,0.25-1.15,0.75c-0.26,0.5-0.38,1.25-0.38,2.25s0.12,1.75,0.38,2.25
		c0.26,0.5,0.64,0.75,1.15,0.75s0.89-0.25,1.15-0.75c0.25-0.5,0.38-1.25,0.38-2.25s-0.13-1.75-0.38-2.25
		C398.27,494.94,397.89,494.69,397.38,494.69 M397.38,493.91c0.81,0,1.43,0.33,1.87,0.97c0.43,0.65,0.65,1.59,0.65,2.81
		c0,1.23-0.22,2.17-0.65,2.81c-0.44,0.64-1.06,0.96-1.87,0.96c-0.82,0-1.45-0.32-1.88-0.96c-0.43-0.64-0.64-1.58-0.64-2.81
		c0-1.22,0.21-2.16,0.64-2.81C395.93,494.24,396.56,493.91,397.38,493.91L397.38,493.91z"/>
	<line class="st1" x1="422.01" y1="486.69" x2="422.01" y2="490.19"/>
	<polygon class="st2" points="410.14,494.04 414.83,494.04 414.83,494.46 412.18,501.33 411.15,501.33 413.64,494.87 410.14,494.87 
		410.14,494.04 	"/>
	<path class="st2" d="M418.74,494.69c-0.51,0-0.89,0.25-1.15,0.75c-0.26,0.5-0.38,1.25-0.38,2.25s0.12,1.75,0.38,2.25
		c0.26,0.5,0.64,0.75,1.15,0.75c0.51,0,0.89-0.25,1.15-0.75c0.25-0.5,0.38-1.25,0.38-2.25s-0.13-1.75-0.38-2.25
		C419.63,494.94,419.25,494.69,418.74,494.69 M418.74,493.91c0.81,0,1.43,0.33,1.87,0.97c0.43,0.65,0.65,1.59,0.65,2.81
		c0,1.23-0.22,2.17-0.65,2.81c-0.44,0.64-1.06,0.96-1.87,0.96c-0.82,0-1.45-0.32-1.88-0.96c-0.43-0.64-0.64-1.58-0.64-2.81
		c0-1.22,0.21-2.16,0.64-2.81C417.29,494.24,417.92,493.91,418.74,493.91L418.74,493.91z"/>
	<path class="st2" d="M425.22,494.69c-0.51,0-0.89,0.25-1.15,0.75s-0.38,1.25-0.38,2.25s0.12,1.75,0.38,2.25s0.64,0.75,1.15,0.75
		c0.51,0,0.89-0.25,1.15-0.75c0.25-0.5,0.38-1.25,0.38-2.25s-0.13-1.75-0.38-2.25C426.11,494.94,425.73,494.69,425.22,494.69
		 M425.22,493.91c0.81,0,1.43,0.33,1.87,0.97c0.43,0.65,0.65,1.59,0.65,2.81c0,1.23-0.22,2.17-0.65,2.81
		c-0.44,0.64-1.06,0.96-1.87,0.96c-0.82,0-1.45-0.32-1.88-0.96c-0.43-0.64-0.64-1.58-0.64-2.81c0-1.22,0.21-2.16,0.64-2.81
		C423.77,494.24,424.4,493.91,425.22,493.91L425.22,493.91z"/>
	<path class="st2" d="M431.46,494.69c-0.51,0-0.89,0.25-1.15,0.75s-0.38,1.25-0.38,2.25s0.12,1.75,0.38,2.25s0.64,0.75,1.15,0.75
		c0.51,0,0.89-0.25,1.15-0.75c0.25-0.5,0.38-1.25,0.38-2.25s-0.13-1.75-0.38-2.25C432.35,494.94,431.97,494.69,431.46,494.69
		 M431.46,493.91c0.81,0,1.43,0.33,1.87,0.97c0.43,0.65,0.65,1.59,0.65,2.81c0,1.23-0.22,2.17-0.65,2.81
		c-0.44,0.64-1.06,0.96-1.87,0.96c-0.82,0-1.45-0.32-1.88-0.96c-0.43-0.64-0.64-1.58-0.64-2.81c0-1.22,0.21-2.16,0.64-2.81
		C430.01,494.24,430.64,493.91,431.46,493.91L431.46,493.91z"/>
	<polygon class="st2" points="248.49,507.91 257.73,507.91 257.73,509.16 253.85,509.16 253.85,518.85 252.36,518.85 252.36,509.16 
		248.49,509.16 248.49,507.91 	"/>
	<path class="st2" d="M259.05,510.64h1.35v8.2h-1.35V510.64 M259.05,507.45h1.35v1.71h-1.35V507.45L259.05,507.45z"/>
	<path class="st2" d="M269.76,512.22c0.33-0.6,0.73-1.03,1.2-1.33c0.46-0.29,1.02-0.43,1.67-0.43c0.84,0,1.5,0.3,1.96,0.9
		c0.46,0.6,0.71,1.45,0.71,2.55v4.95h-1.35v-4.9c0-0.78-0.15-1.36-0.42-1.76c-0.29-0.37-0.7-0.57-1.27-0.57
		c-0.71,0-1.26,0.24-1.67,0.7c-0.4,0.46-0.6,1.09-0.6,1.89v4.63h-1.35v-4.9c0-0.78-0.15-1.36-0.42-1.76
		c-0.29-0.37-0.72-0.57-1.29-0.57c-0.69,0-1.24,0.24-1.65,0.7c-0.4,0.46-0.6,1.09-0.6,1.89v4.63h-1.35v-8.2h1.35v1.27
		c0.3-0.49,0.68-0.87,1.11-1.11c0.42-0.24,0.93-0.36,1.53-0.36s1.1,0.15,1.51,0.45C269.25,511.2,269.55,511.65,269.76,512.22
		L269.76,512.22z"/>
	<path class="st2" d="M284.79,514.41v0.66h-6.2c0.06,0.93,0.33,1.65,0.84,2.13c0.49,0.48,1.18,0.72,2.08,0.72
		c0.51,0,1.02-0.06,1.5-0.18c0.48-0.12,0.98-0.32,1.46-0.58v1.27c-0.48,0.21-0.98,0.38-1.49,0.47c-0.51,0.09-1.04,0.15-1.54,0.15
		c-1.32,0-2.36-0.38-3.12-1.12c-0.77-0.75-1.14-1.78-1.14-3.09c0-1.34,0.36-2.4,1.08-3.2c0.72-0.78,1.71-1.18,2.94-1.18
		c1.11,0,1.98,0.36,2.62,1.07C284.46,512.23,284.79,513.19,284.79,514.41 M283.44,514.02c-0.02-0.74-0.23-1.32-0.61-1.77
		c-0.4-0.43-0.95-0.66-1.61-0.66c-0.75,0-1.35,0.23-1.8,0.64c-0.45,0.42-0.72,1.02-0.78,1.79H283.44L283.44,514.02z"/>
	<path class="st2" d="M295.17,507.46c-0.66,1.14-1.14,2.25-1.46,3.35c-0.33,1.1-0.48,2.2-0.48,3.33c0,1.14,0.15,2.25,0.48,3.34
		c0.32,1.11,0.8,2.21,1.46,3.33H294c-0.73-1.16-1.29-2.27-1.65-3.38c-0.36-1.11-0.54-2.21-0.54-3.3c0-1.08,0.18-2.17,0.54-3.29
		c0.36-1.11,0.9-2.23,1.65-3.39H295.17L295.17,507.46z"/>
	<path class="st2" d="M302.92,510.88v1.27c-0.39-0.18-0.78-0.33-1.18-0.43c-0.42-0.09-0.84-0.15-1.27-0.15
		c-0.67,0-1.18,0.11-1.51,0.32c-0.33,0.21-0.5,0.51-0.5,0.91c0,0.32,0.12,0.55,0.36,0.73s0.72,0.36,1.44,0.51l0.46,0.11
		c0.96,0.21,1.64,0.51,2.04,0.87c0.39,0.38,0.6,0.9,0.6,1.56c0,0.76-0.3,1.36-0.9,1.8c-0.6,0.45-1.44,0.66-2.49,0.66
		c-0.45,0-0.9-0.04-1.38-0.12s-0.98-0.2-1.5-0.38v-1.39c0.49,0.27,0.99,0.46,1.47,0.58c0.48,0.14,0.96,0.2,1.44,0.2
		c0.63,0,1.12-0.1,1.47-0.32c0.33-0.21,0.51-0.53,0.51-0.93c0-0.36-0.14-0.65-0.38-0.84c-0.24-0.19-0.78-0.39-1.62-0.57l-0.46-0.11
		c-0.84-0.18-1.45-0.45-1.82-0.81c-0.38-0.36-0.55-0.85-0.55-1.5c0-0.77,0.27-1.36,0.81-1.78c0.54-0.42,1.32-0.63,2.34-0.63
		c0.5,0,0.96,0.05,1.41,0.12C302.14,510.64,302.55,510.75,302.92,510.88L302.92,510.88z"/>
	<path class="st2" d="M312.63,514.41v0.66h-6.2c0.06,0.93,0.33,1.65,0.84,2.13c0.49,0.48,1.18,0.72,2.08,0.72
		c0.51,0,1.02-0.06,1.5-0.18c0.48-0.12,0.98-0.32,1.46-0.58v1.27c-0.48,0.21-0.98,0.38-1.49,0.47c-0.51,0.09-1.03,0.15-1.54,0.15
		c-1.32,0-2.36-0.38-3.12-1.12c-0.77-0.75-1.14-1.78-1.14-3.09c0-1.34,0.36-2.4,1.08-3.2c0.72-0.78,1.71-1.18,2.94-1.18
		c1.11,0,1.98,0.36,2.62,1.07C312.3,512.23,312.63,513.19,312.63,514.41 M311.28,514.02c-0.01-0.74-0.23-1.32-0.61-1.77
		c-0.4-0.43-0.95-0.66-1.61-0.66c-0.75,0-1.35,0.23-1.8,0.64c-0.45,0.42-0.72,1.02-0.78,1.79H311.28L311.28,514.02z"/>
	<path class="st2" d="M320.64,510.96v1.26c-0.39-0.21-0.77-0.36-1.16-0.46c-0.39-0.11-0.76-0.17-1.15-0.17
		c-0.87,0-1.56,0.29-2.04,0.84c-0.48,0.55-0.72,1.34-0.72,2.33c0,1.01,0.24,1.78,0.72,2.34c0.48,0.56,1.17,0.83,2.04,0.83
		c0.39,0,0.77-0.04,1.15-0.15c0.39-0.11,0.77-0.27,1.16-0.48v1.24c-0.39,0.18-0.78,0.32-1.17,0.39c-0.4,0.08-0.84,0.12-1.29,0.12
		c-1.23,0-2.22-0.38-2.94-1.15c-0.73-0.77-1.1-1.82-1.1-3.14c0-1.34,0.36-2.39,1.1-3.15c0.74-0.76,1.74-1.15,3.03-1.15
		c0.42,0,0.83,0.05,1.21,0.14C319.88,510.67,320.27,510.79,320.64,510.96L320.64,510.96z"/>
	<path class="st2" d="M326.07,511.59c-0.72,0-1.29,0.29-1.71,0.85c-0.42,0.57-0.63,1.34-0.63,2.31c0,0.99,0.19,1.76,0.61,2.33
		s0.99,0.84,1.73,0.84c0.72,0,1.29-0.27,1.71-0.84s0.63-1.34,0.63-2.33c0-0.96-0.21-1.74-0.63-2.31
		C327.36,511.87,326.79,511.59,326.07,511.59 M326.07,510.45c1.17,0,2.08,0.39,2.76,1.14c0.66,0.76,1,1.82,1,3.16s-0.35,2.4-1,3.15
		c-0.68,0.76-1.59,1.14-2.76,1.14c-1.18,0-2.11-0.38-2.77-1.14c-0.66-0.75-0.99-1.8-0.99-3.15s0.33-2.4,0.99-3.16
		C323.96,510.84,324.89,510.45,326.07,510.45L326.07,510.45z"/>
	<path class="st2" d="M339.08,513.9v4.95h-1.35v-4.9c0-0.78-0.17-1.35-0.46-1.74c-0.3-0.39-0.75-0.58-1.35-0.58
		c-0.74,0-1.3,0.24-1.73,0.7c-0.42,0.46-0.63,1.09-0.63,1.89v4.63h-1.35v-8.2h1.35v1.27c0.32-0.48,0.69-0.85,1.14-1.1
		c0.43-0.24,0.95-0.38,1.51-0.38c0.93,0,1.65,0.3,2.13,0.89S339.08,512.77,339.08,513.9L339.08,513.9z"/>
	<path class="st2" d="M347.01,511.89v-4.44h1.35v11.4h-1.35v-1.23c-0.29,0.49-0.65,0.85-1.08,1.08c-0.43,0.22-0.95,0.34-1.54,0.34
		c-0.99,0-1.8-0.39-2.43-1.17c-0.63-0.78-0.93-1.83-0.93-3.12s0.3-2.33,0.93-3.12c0.63-0.78,1.44-1.18,2.43-1.18
		c0.6,0,1.11,0.12,1.54,0.36C346.36,511.05,346.73,511.41,347.01,511.89 M342.42,514.75c0,0.99,0.19,1.77,0.6,2.34
		c0.4,0.57,0.98,0.84,1.7,0.84c0.71,0,1.26-0.27,1.68-0.84c0.4-0.57,0.62-1.35,0.62-2.34s-0.21-1.76-0.62-2.33
		c-0.42-0.57-0.97-0.85-1.68-0.85c-0.72,0-1.29,0.29-1.7,0.85C342.61,513,342.42,513.76,342.42,514.75L342.42,514.75z"/>
	<path class="st2" d="M356.45,510.88v1.27c-0.39-0.18-0.78-0.33-1.18-0.43c-0.42-0.09-0.84-0.15-1.28-0.15
		c-0.67,0-1.18,0.11-1.51,0.32c-0.33,0.21-0.49,0.51-0.49,0.91c0,0.32,0.12,0.55,0.36,0.73c0.24,0.18,0.72,0.36,1.44,0.51l0.46,0.11
		c0.96,0.21,1.64,0.51,2.04,0.87c0.39,0.38,0.6,0.9,0.6,1.56c0,0.76-0.3,1.36-0.9,1.8c-0.6,0.45-1.44,0.66-2.49,0.66
		c-0.45,0-0.9-0.04-1.38-0.12c-0.48-0.08-0.97-0.2-1.5-0.38v-1.39c0.5,0.27,0.99,0.46,1.47,0.58c0.48,0.14,0.96,0.2,1.44,0.2
		c0.63,0,1.12-0.1,1.47-0.32c0.33-0.21,0.51-0.53,0.51-0.93c0-0.36-0.14-0.65-0.38-0.84c-0.24-0.19-0.78-0.39-1.62-0.57l-0.46-0.11
		c-0.84-0.18-1.46-0.45-1.82-0.81c-0.38-0.36-0.55-0.85-0.55-1.5c0-0.77,0.27-1.36,0.81-1.78c0.54-0.42,1.32-0.63,2.34-0.63
		c0.49,0,0.96,0.05,1.41,0.12C355.67,510.64,356.07,510.75,356.45,510.88L356.45,510.88z"/>
	<path class="st2" d="M358.92,507.46h1.17c0.72,1.15,1.27,2.28,1.64,3.39c0.36,1.11,0.55,2.2,0.55,3.29c0,1.09-0.2,2.19-0.55,3.3
		c-0.36,1.11-0.92,2.22-1.64,3.38h-1.17c0.64-1.12,1.12-2.22,1.45-3.33c0.32-1.09,0.48-2.2,0.48-3.34c0-1.12-0.17-2.23-0.48-3.33
		C360.05,509.71,359.57,508.6,358.92,507.46L358.92,507.46z"/>
	<line class="st1" x1="171" y1="480.01" x2="167.5" y2="480.01"/>
	<path class="st2" d="M160.74,477.17c-0.51,0-0.89,0.25-1.15,0.75c-0.26,0.5-0.38,1.25-0.38,2.25s0.12,1.75,0.38,2.25
		c0.26,0.5,0.64,0.75,1.15,0.75c0.51,0,0.89-0.25,1.15-0.75c0.25-0.5,0.38-1.25,0.38-2.25s-0.13-1.75-0.38-2.25
		C161.63,477.42,161.25,477.17,160.74,477.17 M160.74,476.39c0.81,0,1.43,0.33,1.87,0.97c0.43,0.65,0.65,1.59,0.65,2.81
		c0,1.23-0.22,2.17-0.65,2.81c-0.44,0.64-1.06,0.96-1.87,0.96c-0.82,0-1.45-0.32-1.88-0.96c-0.43-0.64-0.64-1.58-0.64-2.81
		c0-1.22,0.21-2.16,0.64-2.81C159.29,476.72,159.92,476.39,160.74,476.39L160.74,476.39z"/>
	<line class="st1" x1="171" y1="438.29" x2="167.5" y2="438.29"/>
	<path class="st2" d="M158.64,434.76h3.87v0.83h-2.97v1.79c0.14-0.05,0.29-0.09,0.43-0.11c0.14-0.02,0.29-0.04,0.43-0.04
		c0.81,0,1.45,0.23,1.93,0.67c0.48,0.45,0.72,1.05,0.72,1.81c0,0.79-0.25,1.4-0.74,1.83c-0.49,0.43-1.18,0.64-2.06,0.64
		c-0.31,0-0.62-0.03-0.94-0.07c-0.32-0.05-0.64-0.12-0.98-0.23v-0.99c0.29,0.16,0.59,0.28,0.91,0.36c0.31,0.08,0.64,0.11,0.99,0.11
		c0.56,0,1.01-0.14,1.34-0.44c0.32-0.3,0.49-0.7,0.49-1.21c0-0.5-0.17-0.9-0.49-1.2c-0.33-0.3-0.78-0.45-1.34-0.45
		c-0.26,0-0.53,0.03-0.79,0.09c-0.26,0.06-0.53,0.15-0.8,0.27V434.76L158.64,434.76z"/>
	<line class="st1" x1="171" y1="396.56" x2="167.5" y2="396.56"/>
	<polygon class="st2" points="152.56,399.46 154.17,399.46 154.17,393.9 152.42,394.25 152.42,393.35 154.16,393 155.15,393 
		155.15,399.46 156.76,399.46 156.76,400.29 152.56,400.29 152.56,399.46 	"/>
	<path class="st2" d="M160.74,393.65c-0.51,0-0.89,0.25-1.15,0.75c-0.26,0.5-0.38,1.25-0.38,2.25s0.12,1.75,0.38,2.25
		c0.26,0.5,0.64,0.75,1.15,0.75c0.51,0,0.89-0.25,1.15-0.75c0.25-0.5,0.38-1.25,0.38-2.25s-0.13-1.75-0.38-2.25
		C161.63,393.9,161.25,393.65,160.74,393.65 M160.74,392.87c0.81,0,1.43,0.33,1.87,0.97c0.43,0.65,0.65,1.59,0.65,2.81
		c0,1.23-0.22,2.17-0.65,2.81c-0.44,0.64-1.06,0.96-1.87,0.96c-0.82,0-1.45-0.32-1.88-0.96c-0.43-0.64-0.64-1.58-0.64-2.81
		c0-1.22,0.21-2.16,0.64-2.81C159.29,393.2,159.92,392.87,160.74,392.87L160.74,392.87z"/>
	<line class="st1" x1="171" y1="354.83" x2="167.5" y2="354.83"/>
	<polygon class="st2" points="152.56,357.7 154.17,357.7 154.17,352.14 152.42,352.49 152.42,351.59 154.16,351.24 155.15,351.24 
		155.15,357.7 156.76,357.7 156.76,358.53 152.56,358.53 152.56,357.7 	"/>
	<path class="st2" d="M158.64,351.24h3.87v0.83h-2.97v1.79c0.14-0.05,0.29-0.09,0.43-0.11c0.14-0.02,0.29-0.04,0.43-0.04
		c0.81,0,1.45,0.23,1.93,0.67c0.48,0.45,0.72,1.05,0.72,1.81c0,0.79-0.25,1.4-0.74,1.83c-0.49,0.43-1.18,0.64-2.06,0.64
		c-0.31,0-0.62-0.03-0.94-0.07c-0.32-0.05-0.64-0.12-0.98-0.23v-0.99c0.29,0.16,0.59,0.28,0.91,0.36c0.31,0.08,0.64,0.11,0.99,0.11
		c0.56,0,1.01-0.14,1.34-0.44c0.32-0.3,0.49-0.7,0.49-1.21c0-0.5-0.17-0.9-0.49-1.2c-0.33-0.3-0.78-0.45-1.34-0.45
		c-0.26,0-0.53,0.03-0.79,0.09c-0.26,0.06-0.53,0.15-0.8,0.27V351.24L158.64,351.24z"/>
	<path class="st2" d="M133.54,426.34h1.44c-0.27,0.57-0.47,1.1-0.6,1.59c-0.12,0.51-0.2,0.99-0.2,1.44c0,0.81,0.17,1.44,0.47,1.88
		c0.31,0.43,0.76,0.64,1.33,0.64c0.48,0,0.86-0.14,1.1-0.43c0.26-0.29,0.45-0.84,0.6-1.65l0.18-0.9c0.21-1.1,0.59-1.9,1.11-2.43
		c0.54-0.52,1.25-0.79,2.13-0.79c1.07,0,1.86,0.36,2.4,1.06c0.54,0.72,0.81,1.76,0.81,3.12c0,0.52-0.06,1.08-0.16,1.66
		c-0.1,0.59-0.27,1.18-0.51,1.8h-1.53c0.34-0.6,0.6-1.18,0.76-1.76c0.18-0.57,0.25-1.14,0.25-1.71c0-0.84-0.16-1.49-0.49-1.95
		c-0.33-0.45-0.79-0.69-1.43-0.69c-0.54,0-0.96,0.17-1.26,0.49c-0.3,0.33-0.53,0.87-0.68,1.62l-0.18,0.9
		c-0.21,1.11-0.56,1.9-1.04,2.4c-0.46,0.49-1.11,0.73-1.95,0.73c-0.96,0-1.73-0.33-2.28-1.02c-0.55-0.67-0.84-1.62-0.84-2.82
		c0-0.51,0.04-1.02,0.14-1.56C133.21,427.45,133.36,426.91,133.54,426.34L133.54,426.34z"/>
	<path class="st2" d="M136.23,417.69h1.26c-0.21,0.39-0.36,0.77-0.46,1.15c-0.1,0.39-0.16,0.77-0.16,1.15
		c0,0.87,0.28,1.56,0.84,2.04c0.55,0.48,1.33,0.72,2.32,0.72c1.01,0,1.79-0.24,2.34-0.72c0.56-0.48,0.82-1.17,0.82-2.04
		c0-0.39-0.04-0.76-0.15-1.15c-0.1-0.39-0.27-0.76-0.48-1.15h1.24c0.18,0.39,0.32,0.78,0.39,1.17c0.07,0.4,0.12,0.84,0.12,1.29
		c0,1.23-0.38,2.22-1.15,2.94c-0.76,0.73-1.81,1.1-3.13,1.1c-1.34,0-2.38-0.36-3.15-1.1c-0.76-0.74-1.15-1.74-1.15-3.03
		c0-0.42,0.04-0.83,0.13-1.22C135.94,418.45,136.06,418.06,136.23,417.69L136.23,417.69z"/>
	<path class="st2" d="M136.86,412.02c0,0.72,0.28,1.29,0.85,1.71c0.57,0.42,1.33,0.63,2.31,0.63c0.99,0,1.76-0.2,2.32-0.61
		c0.57-0.42,0.84-0.99,0.84-1.73c0-0.72-0.27-1.29-0.84-1.71c-0.57-0.42-1.33-0.63-2.32-0.63c-0.96,0-1.74,0.21-2.31,0.63
		C137.14,410.73,136.86,411.3,136.86,412.02 M135.72,412.02c0-1.17,0.39-2.08,1.14-2.76c0.76-0.66,1.81-1.01,3.16-1.01
		s2.4,0.35,3.15,1.01c0.76,0.68,1.14,1.59,1.14,2.76c0,1.18-0.38,2.11-1.14,2.77c-0.75,0.66-1.8,0.99-3.15,0.99s-2.4-0.33-3.16-0.99
		C136.11,414.13,135.72,413.2,135.72,412.02L135.72,412.02z"/>
	<path class="st2" d="M137.17,401.32c-0.09,0.15-0.15,0.32-0.19,0.49c-0.03,0.18-0.06,0.38-0.06,0.58c0,0.77,0.25,1.35,0.75,1.76
		c0.49,0.42,1.2,0.62,2.13,0.62h4.32v1.35h-8.21v-1.35h1.27c-0.49-0.27-0.87-0.65-1.11-1.1c-0.24-0.45-0.36-1.01-0.36-1.67
		c0-0.09,0.01-0.2,0.01-0.32c0.01-0.11,0.03-0.23,0.06-0.38H137.17L137.17,401.32z"/>
	<path class="st2" d="M139.68,392.82h0.66v6.2c0.93-0.06,1.65-0.33,2.13-0.84c0.48-0.49,0.72-1.18,0.72-2.08
		c0-0.51-0.06-1.02-0.18-1.5c-0.12-0.48-0.32-0.98-0.59-1.46h1.28c0.21,0.48,0.38,0.98,0.46,1.49c0.09,0.51,0.15,1.03,0.15,1.54
		c0,1.32-0.38,2.36-1.12,3.12c-0.75,0.77-1.78,1.14-3.09,1.14c-1.33,0-2.4-0.36-3.19-1.08c-0.78-0.72-1.18-1.71-1.18-2.94
		c0-1.11,0.36-1.98,1.06-2.62C137.5,393.15,138.46,392.82,139.68,392.82 M139.29,394.17c-0.74,0.02-1.32,0.23-1.77,0.61
		c-0.43,0.4-0.66,0.95-0.66,1.61c0,0.75,0.22,1.35,0.64,1.8c0.42,0.45,1.02,0.72,1.79,0.78V394.17L139.29,394.17z"/>
	<g>
		<defs>
			<rect id="SVGID_1_" x="171" y="339.79" width="270" height="146.9"/>
		</defs>
		<clipPath id="SVGID_2_">
			<use xlink:href="#SVGID_1_"  style="overflow:visible;"/>
		</clipPath>
		<polyline class="st3" points="183.27,480.01 185.25,480.01 185.39,463.32 185.69,463.32 185.83,471.67 185.97,471.67 
			186.1,454.98 186.79,454.98 186.85,463.32 186.89,454.98 187.09,454.98 187.23,446.63 187.98,446.63 188.12,463.32 189.45,463.32 
			189.62,480.01 189.68,480.01 189.82,471.67 189.89,471.67 190.03,463.32 190.47,463.32 190.61,446.63 191.9,446.63 192.04,454.98 
			192.75,454.98 192.92,438.29 193.1,438.29 193.23,446.63 193.71,446.63 193.85,438.29 193.95,438.29 194.08,446.63 194.77,446.63 
			194.9,471.67 195.99,471.67 196.13,480.01 196.78,480.01 196.91,471.67 197.46,471.67 197.6,480.01 198.14,480.01 198.31,463.32 
			200.19,463.32 200.33,471.67 200.7,471.67 200.84,463.32 202.34,463.32 202.47,471.67 202.78,471.67 202.81,480.01 202.88,471.67 
			203.53,471.67 203.67,463.32 204.86,463.32 205,471.67 205.95,471.67 206.23,429.94 207.93,429.94 208.07,454.98 208.24,454.98 
			208.37,438.29 208.61,438.29 208.75,446.63 208.95,446.63 209.09,438.29 209.57,438.29 209.7,454.98 210.39,454.98 210.52,446.63 
			211.27,446.63 211.41,438.29 211.48,438.29 211.61,446.63 212.6,446.63 212.74,463.32 213.29,463.32 213.42,454.98 213.46,454.98 
			213.56,463.32 213.73,429.94 214.27,429.94 214.41,421.6 215.84,421.6 216.01,463.32 217.38,463.32 217.48,471.67 217.55,463.32 
			217.58,471.67 219.8,471.67 219.94,480.01 220.52,480.01 220.69,446.63 221.03,446.63 221.16,438.29 222.56,438.29 222.7,454.98 
			222.97,454.98 223.11,446.63 223.45,446.63 223.58,463.32 223.89,463.32 223.93,454.98 223.99,463.32 225.05,463.32 
			225.19,471.67 225.97,471.67 226.11,480.01 227.3,480.01 227.47,446.63 228.7,446.63 228.84,438.29 229.89,438.29 230.03,429.94 
			230.24,429.94 230.41,463.32 230.92,463.32 231.05,471.67 232.21,471.67 232.35,480.01 232.55,480.01 232.69,471.67 
			234.02,471.67 234.29,429.94 234.43,429.94 234.57,421.6 234.6,421.6 234.77,404.9 234.84,404.9 234.98,413.25 235.04,413.25 
			235.18,404.9 237.98,404.9 238.11,413.25 238.18,413.25 238.22,404.9 238.28,413.25 238.56,413.25 238.66,404.9 238.73,413.25 
			238.76,404.9 239.24,404.9 239.38,413.25 239.82,413.25 239.96,396.56 240.4,396.56 240.54,413.25 240.6,396.56 240.67,404.9 
			240.84,421.6 240.98,421.6 241.05,413.25 241.08,421.6 241.18,421.6 241.32,429.94 241.42,429.94 241.56,421.6 241.73,421.6 
			241.9,438.29 242.07,438.29 242.21,429.94 242.72,429.94 242.85,438.29 243.16,438.29 243.3,446.63 243.33,446.63 243.5,429.94 
			243.54,429.94 243.67,421.6 244.39,421.6 244.53,413.25 244.73,413.25 244.87,388.21 244.93,388.21 245.07,379.87 245.34,379.87 
			245.51,396.56 245.89,396.56 246.03,388.21 246.67,388.21 246.88,413.25 246.98,404.9 247.12,413.25 247.15,413.25 247.29,421.6 
			247.36,421.6 247.49,429.94 247.63,421.6 247.7,421.6 247.8,429.94 247.94,421.6 248.11,421.6 248.28,438.29 248.41,438.29 
			248.55,446.63 248.93,446.63 249.1,429.94 249.91,429.94 249.98,421.6 250.02,429.94 250.56,429.94 250.7,438.29 250.8,438.29 
			250.97,421.6 251.59,421.6 251.72,413.25 251.96,413.25 252.03,421.6 252.06,413.25 252.37,413.25 252.51,429.94 252.64,404.9 
			252.71,404.9 252.85,388.21 252.95,388.21 253.02,396.56 253.05,388.21 253.32,388.21 253.46,379.87 255,379.87 255.13,388.21 
			255.44,388.21 255.54,396.56 255.68,388.21 255.75,388.21 255.88,396.56 256.02,396.56 256.16,429.94 256.94,429.94 
			257.08,438.29 257.25,438.29 257.45,463.32 257.69,463.32 257.83,471.67 258,438.29 258.03,438.29 258.1,429.94 258.13,438.29 
			258.95,438.29 259.09,429.94 259.16,429.94 259.29,413.25 259.91,413.25 260.08,446.63 260.21,454.98 260.59,454.98 
			260.73,446.63 261.03,446.63 261.24,471.67 263.56,471.67 263.69,480.01 264.58,480.01 264.72,471.67 264.85,471.67 
			264.99,463.32 265.88,463.32 266.01,454.98 266.35,454.98 266.49,429.94 266.63,429.94 266.76,438.29 266.8,438.29 266.97,454.98 
			268.5,454.98 268.64,471.67 269.18,471.67 269.32,480.01 269.93,480.01 270.07,471.67 270.58,471.67 270.72,480.01 275.32,480.01 
			275.46,471.67 277.88,471.67 278.02,480.01 278.53,480.01 278.66,471.67 280.06,471.67 280.2,480.01 283.13,480.01 283.2,471.67 
			283.23,480.01 284.5,480.01 284.63,471.67 286.58,471.67 286.71,480.01 288.49,480.01 288.62,471.67 288.9,471.67 289.03,463.32 
			289.51,463.32 289.54,454.98 289.61,463.32 290.77,463.32 290.91,471.67 291.01,471.67 291.15,480.01 293.81,480.01 
			293.98,446.63 296.06,446.63 296.19,480.01 297.46,480.01 297.59,454.98 298.04,454.98 298.17,463.32 299.16,463.32 299.3,454.98 
			299.5,454.98 299.64,480.01 301.14,480.01 301.34,454.98 302.98,454.98 303.12,463.32 303.36,463.32 303.49,471.67 305.2,471.67 
			305.33,480.01 307.01,480.01 307.14,463.32 307.59,463.32 307.72,471.67 308.54,471.67 308.68,463.32 308.85,463.32 
			308.98,471.67 309.77,471.67 309.94,438.29 310.72,438.29 310.86,446.63 311.88,446.63 312.05,480.01 312.67,480.01 312.8,471.67 
			312.84,471.67 313.01,438.29 315.16,438.29 315.23,429.94 315.26,438.29 315.57,438.29 315.7,454.98 315.91,454.98 316.04,471.67 
			316.59,471.67 316.73,463.32 317,463.32 317.14,454.98 317.2,454.98 317.34,463.32 318.26,463.32 318.4,471.67 319.28,471.67 
			319.42,480.01 319.66,480.01 319.8,471.67 320.31,471.67 320.44,463.32 321.33,463.32 321.47,471.67 321.6,463.32 321.74,463.32 
			321.88,454.98 322.42,454.98 322.56,463.32 322.59,463.32 322.73,454.98 323.62,454.98 323.75,463.32 324.13,463.32 
			324.26,471.67 325.49,471.67 325.63,463.32 326.51,463.32 326.65,471.67 326.96,471.67 327.09,463.32 327.61,463.32 
			327.74,471.67 328.39,471.67 328.53,463.32 329.17,463.32 329.31,471.67 330.44,471.67 330.57,480.01 330.98,480.01 
			331.12,471.67 331.32,471.67 331.46,454.98 332.89,454.98 333.03,446.63 333.16,454.98 333.37,454.98 333.4,446.63 333.44,463.32 
			335.04,463.32 335.18,446.63 335.59,446.63 335.72,438.29 337.09,438.29 337.22,471.67 337.46,471.67 337.6,480.01 340.05,480.01 
			340.36,429.94 340.63,429.94 340.84,404.9 341.11,404.9 341.25,388.21 341.28,388.21 341.42,371.52 341.55,371.52 341.69,363.18 
			341.76,363.18 341.83,346.49 341.86,354.83 342.13,354.83 342.27,346.49 342.54,346.49 342.71,388.21 343.26,388.21 343.4,396.56 
			343.7,396.56 343.74,413.25 343.77,404.9 343.84,388.21 343.87,404.9 344.08,404.9 344.28,379.87 345,379.87 345.14,388.21 
			345.24,388.21 345.48,421.6 345.85,421.6 346.02,404.9 346.5,404.9 346.64,429.94 346.77,429.94 346.91,438.29 347.11,438.29 
			347.25,446.63 347.73,446.63 347.86,438.29 348.21,438.29 348.31,463.32 348.34,454.98 348.82,454.98 348.96,446.63 
			349.09,446.63 349.13,438.29 349.16,446.63 349.3,454.98 349.4,454.98 349.54,438.29 349.91,438.29 350.08,421.6 350.18,421.6 
			350.22,413.25 350.29,421.6 350.32,421.6 350.46,438.29 350.52,438.29 350.66,446.63 350.69,446.63 350.83,454.98 351.68,454.98 
			351.82,438.29 352.06,438.29 352.26,413.25 352.6,413.25 352.74,429.94 352.88,421.6 353.08,421.6 353.22,413.25 353.29,413.25 
			353.32,429.94 353.39,413.25 353.7,413.25 353.76,421.6 353.8,413.25 355.37,413.25 355.5,396.56 355.67,396.56 355.81,379.87 
			356.02,379.87 356.15,388.21 356.22,388.21 356.36,379.87 356.39,379.87 356.53,371.52 356.8,371.52 356.97,388.21 357.04,388.21 
			357.24,413.25 357.52,413.25 357.65,429.94 357.69,429.94 357.75,421.6 357.89,438.29 357.93,438.29 358.06,446.63 358.2,429.94 
			358.95,429.94 359.08,438.29 359.22,438.29 359.36,454.98 359.56,454.98 359.7,463.32 359.94,463.32 360.07,446.63 360.65,446.63 
			360.82,429.94 361.03,429.94 361.06,438.29 361.13,429.94 361.27,421.6 361.37,421.6 361.51,429.94 361.64,429.94 361.78,438.29 
			361.95,438.29 362.09,446.63 363.11,446.63 363.25,438.29 363.28,438.29 363.42,421.6 363.62,421.6 363.79,404.9 364.1,404.9 
			364.17,421.6 364.2,413.25 364.27,413.25 364.4,421.6 364.44,421.6 364.61,404.9 364.81,429.94 364.98,429.94 365.09,421.6 
			365.22,429.94 366.01,429.94 366.18,446.63 367.3,446.63 367.44,454.98 367.95,454.98 368.09,446.63 368.77,446.63 368.98,421.6 
			369.25,421.6 369.38,413.25 369.52,413.25 369.59,421.6 369.62,413.25 369.93,413.25 370.07,404.9 371.23,404.9 371.26,413.25 
			371.33,404.9 371.36,404.9 371.5,413.25 371.64,413.25 371.77,404.9 371.91,421.6 372.08,421.6 372.22,413.25 372.42,413.25 
			372.56,421.6 372.97,421.6 373.1,404.9 373.31,404.9 373.51,429.94 373.95,429.94 374.16,454.98 374.3,454.98 374.43,471.67 
			375.08,471.67 375.28,446.63 377.06,446.63 377.19,438.29 377.23,438.29 377.36,446.63 377.57,446.63 377.67,454.98 
			377.81,446.63 377.94,446.63 378.15,471.67 378.42,471.67 378.56,480.01 378.59,480.01 378.7,471.67 378.83,480.01 379.07,480.01 
			379.21,463.32 379.48,463.32 379.62,454.98 379.79,454.98 379.92,438.29 380.47,438.29 380.67,413.25 381.05,413.25 
			381.18,429.94 382.21,429.94 382.34,446.63 382.99,446.63 383.16,463.32 383.23,463.32 383.37,446.63 384.15,446.63 
			384.32,413.25 385.11,413.25 385.28,446.63 385.86,446.63 385.99,463.32 386.54,463.32 386.61,471.67 386.64,463.32 
			386.78,463.32 386.95,446.63 387.05,446.63 387.22,429.94 387.43,429.94 387.53,438.29 387.66,429.94 387.84,429.94 
			387.87,438.29 387.94,429.94 388.21,429.94 388.38,396.56 388.72,396.56 388.76,404.9 388.79,388.21 388.89,388.21 389.03,396.56 
			389.1,396.56 389.13,388.21 389.17,404.9 389.23,404.9 389.37,396.56 389.47,396.56 389.61,379.87 389.64,379.87 389.78,388.21 
			390.09,388.21 390.22,404.9 390.39,404.9 390.53,421.6 391.35,421.6 391.52,404.9 391.79,404.9 391.96,438.29 392.61,438.29 
			392.75,446.63 392.85,446.63 392.99,438.29 393.39,438.29 393.56,454.98 393.67,454.98 393.8,446.63 393.94,463.32 394.32,463.32 
			394.45,454.98 394.49,454.98 394.62,471.67 395.65,471.67 395.78,454.98 396.33,454.98 396.46,438.29 396.53,438.29 
			396.67,454.98 397.62,454.98 397.76,471.67 397.83,471.67 397.96,480.01 401.82,480.01 402.16,421.6 402.5,421.6 402.64,413.25 
			402.67,413.25 402.81,388.21 402.84,388.21 402.98,371.52 403.32,371.52 403.46,388.21 403.49,388.21 403.66,404.9 403.69,396.56 
			403.76,404.9 403.86,404.9 404,421.6 404.14,413.25 404.17,413.25 404.21,421.6 404.24,404.9 404.75,404.9 404.89,396.56 
			405.06,454.98 405.09,446.63 405.3,446.63 405.43,429.94 405.47,429.94 405.67,454.98 405.71,454.98 405.81,480.01 405.84,463.32 
			406.05,463.32 406.22,446.63 406.63,446.63 406.76,429.94 407.07,429.94 407.21,446.63 407.34,438.29 407.38,438.29 
			407.51,454.98 411.64,454.98 411.78,463.32 412.02,463.32 412.08,471.67 412.12,463.32 412.36,463.32 412.49,454.98 412.8,454.98 
			412.94,463.32 413.28,463.32 413.41,454.98 414.23,454.98 414.27,446.63 414.33,454.98 414.74,454.98 414.88,446.63 
			414.91,446.63 415.05,454.98 415.19,446.63 415.43,446.63 415.56,454.98 415.73,454.98 415.84,446.63 415.97,454.98 
			416.24,454.98 416.38,446.63 416.62,446.63 416.76,454.98 416.82,454.98 416.96,463.32 417.51,463.32 417.64,454.98 
			418.09,454.98 418.12,463.32 418.19,454.98 418.97,454.98 419.11,463.32 419.18,463.32 419.31,454.98 419.55,454.98 
			419.69,463.32 420.27,463.32 420.44,480.01 420.61,463.32 420.64,463.32 420.81,480.01 421.5,480.01 421.63,471.67 421.84,471.67 
			422.01,454.98 424.98,454.98 425.11,463.32 425.15,463.32 425.32,480.01 426.72,480.01 426.89,463.32 427.23,463.32 
			427.36,454.98 428.73,454.98 428.73,454.98 		"/>
	</g>
	<path class="st4" d="M171,486.69V339.81 M441,486.69V339.81 M171,486.69h270 M171,339.81h270"/>
</g>
</svg>
