<?xml version="1.0" encoding="utf-8" standalone="no"?>
<!DOCTYPE svg PUBLIC "-//W3C//DTD SVG 1.1//EN"
  "http://www.w3.org/Graphics/SVG/1.1/DTD/svg11.dtd">
<!-- Created with matplotlib (https://matplotlib.org/) -->
<svg height="177.48pt" version="1.1" viewBox="0 0 349.2 177.48" width="349.2pt" xmlns="http://www.w3.org/2000/svg" xmlns:xlink="http://www.w3.org/1999/xlink">
 <defs>
  <style type="text/css">
*{stroke-linecap:butt;stroke-linejoin:round;}
  </style>
 </defs>
 <g id="figure_1">
  <g id="axes_1">
   <g id="line2d_1">
    <path clip-path="url(#p82ebe53eb7)" d="M 22.418182 161.875756 
L 25.837998 161.875756 
L 29.257814 161.875756 
L 32.67763 161.875756 
L 36.097446 161.875756 
L 39.517263 162.769658 
L 42.937079 161.711721 
L 46.356895 160.81569 
L 49.776711 160.81569 
L 53.196527 160.916709 
L 56.616343 162.153102 
L 60.036159 161.686567 
L 63.455975 162.574879 
L 66.875792 161.817201 
L 70.295608 162.050998 
L 73.715424 161.790593 
L 77.13524 162.194461 
L 80.555056 162.254475 
L 83.974872 161.997435 
L 87.394688 162.148865 
L 90.814505 161.708177 
L 94.234321 160.886325 
L 97.654137 160.619637 
L 101.073953 160.922683 
L 104.493769 161.022543 
L 107.913585 160.404108 
L 111.333401 161.814063 
L 114.753218 161.814063 
L 118.173034 162.30278 
L 121.59285 162.423519 
L 125.012666 161.77594 
L 128.432482 161.812912 
L 131.852298 161.265887 
L 135.272114 161.265887 
L 138.691931 161.265887 
L 142.111747 161.7931 
L 145.531563 160.976777 
L 148.951379 161.321451 
L 152.371195 161.925868 
L 155.791011 161.463986 
L 159.210827 162.14609 
L 162.630644 161.624662 
L 166.05046 161.925933 
L 169.470276 162.385865 
L 172.890092 162.385865 
L 176.309908 162.685148 
L 179.729724 161.444398 
L 183.14954 161.271753 
L 186.569356 161.204006 
L 189.989173 150.575317 
L 193.408989 123.691368 
L 196.828805 123.691368 
L 200.248621 147.671821 
L 203.668437 107.326643 
L 207.088253 135.735463 
L 210.508069 162.371104 
L 213.927886 161.763618 
L 217.347702 152.259109 
L 220.767518 152.259109 
L 224.187334 161.521827 
L 227.60715 162.733545 
L 231.026966 142.260037 
L 234.446782 160.085122 
L 237.866599 162.286366 
L 241.286415 160.608633 
L 244.706231 147.874554 
L 248.126047 147.874554 
L 251.545863 161.297 
L 254.965679 155.898734 
L 258.385495 155.898734 
L 261.805312 155.898734 
L 265.225128 155.898734 
L 268.644944 162.01398 
L 272.06476 162.01398 
L 275.484576 162.01398 
L 278.904392 160.376978 
L 282.324208 158.918065 
L 285.744025 162.867273 
L 289.163841 161.01433 
L 292.583657 161.787041 
L 296.003473 161.787041 
L 299.423289 161.67027 
L 302.843105 161.601481 
L 306.262921 161.601481 
L 309.682737 160.932588 
L 313.102554 162.426361 
L 316.52237 162.34671 
L 319.942186 160.867588 
L 323.362002 160.867588 
L 326.781818 161.522788 
" style="fill:none;stroke:#0f0f0f;stroke-linecap:square;stroke-opacity:0.9;stroke-width:1.5;"/>
   </g>
   <g id="line2d_2">
    <path clip-path="url(#p82ebe53eb7)" d="M 22.418182 88.285966 
L 25.837998 88.285966 
L 29.257814 88.285966 
L 32.67763 88.285966 
L 36.097446 88.285966 
L 39.517263 89.904972 
L 42.937079 88.469268 
L 46.356895 88.979762 
L 49.776711 88.979762 
L 53.196527 88.979762 
L 56.616343 89.00343 
L 60.036159 89.320832 
L 63.455975 89.06161 
L 66.875792 89.06161 
L 70.295608 88.909088 
L 73.715424 88.697357 
L 77.13524 89.371517 
L 80.555056 89.165538 
L 83.974872 88.940616 
L 87.394688 88.565653 
L 90.814505 88.202176 
L 94.234321 87.336616 
L 97.654137 87.107112 
L 101.073953 87.664675 
L 104.493769 87.170643 
L 107.913585 87.235575 
L 111.333401 88.490772 
L 114.753218 88.490772 
L 118.173034 87.428071 
L 121.59285 89.093743 
L 125.012666 88.612267 
L 128.432482 88.73354 
L 131.852298 86.810411 
L 135.272114 86.810411 
L 138.691931 86.810411 
L 142.111747 88.1481 
L 145.531563 87.887514 
L 148.951379 87.887514 
L 152.371195 87.907488 
L 155.791011 88.20613 
L 159.210827 88.8803 
L 162.630644 88.16788 
L 166.05046 89.067963 
L 169.470276 89.067963 
L 172.890092 89.067963 
L 176.309908 89.533458 
L 179.729724 88.245429 
L 183.14954 87.930841 
L 186.569356 87.916641 
L 189.989173 78.098594 
L 193.408989 14.612727 
L 196.828805 14.612727 
L 200.248621 71.88782 
L 203.668437 23.576775 
L 207.088253 57.91791 
L 210.508069 89.202281 
L 213.927886 88.202873 
L 217.347702 81.99228 
L 220.767518 81.99228 
L 224.187334 88.268989 
L 227.60715 89.372853 
L 231.026966 65.158655 
L 234.446782 86.216034 
L 237.866599 87.608078 
L 241.286415 87.608078 
L 244.706231 72.237135 
L 248.126047 72.237135 
L 251.545863 75.659592 
L 254.965679 87.840839 
L 258.385495 87.840839 
L 261.805312 87.840839 
L 265.225128 88.887238 
L 268.644944 88.887238 
L 272.06476 88.887238 
L 275.484576 88.887238 
L 278.904392 86.88133 
L 282.324208 85.216809 
L 285.744025 85.216809 
L 289.163841 89.319954 
L 292.583657 88.547245 
L 296.003473 88.547245 
L 299.423289 88.711533 
L 302.843105 88.102594 
L 306.262921 88.102594 
L 309.682737 87.826539 
L 313.102554 88.946775 
L 316.52237 88.485539 
L 319.942186 87.787796 
L 323.362002 87.787796 
L 326.781818 88.316559 
" style="fill:none;stroke:#0f0f0f;stroke-linecap:square;stroke-opacity:0.9;stroke-width:1.5;"/>
   </g>
  </g>
 </g>
 <defs>
  <clipPath id="p82ebe53eb7">
   <rect height="163.08" width="334.8" x="7.2" y="7.2"/>
  </clipPath>
 </defs>
</svg>
